<svg id="Layer_1" data-name="Layer 1" xmlns="http://www.w3.org/2000/svg" viewBox="0 0 218.45 85.53"><title>rate_3</title><path d="M183.1,220.91c.93-3.71,5.56-8.17,15.58-8.07,10-.1,14.66,4.36,15.59,8.07.69,2.76.61,4.7.1,6.05A89.87,89.87,0,0,1,227,230.5c.08-.38.15-.76.24-1.15,0,0,4.47-17.26-13.21-25.61a32.63,32.63,0,0,0-15.37-2.93,32.61,32.61,0,0,0-15.36,2.93c-17.68,8.35-13.21,25.61-13.21,25.61.12.52.22,1,.32,1.53A69.23,69.23,0,0,1,183,227C182.49,225.63,182.41,223.68,183.1,220.91Z" transform="translate(-11.46 -200.28)" fill="#ff5722" stroke="#000" stroke-miterlimit="10"/><path d="M227,230.5A89.87,89.87,0,0,0,214.37,227c-1.28,3.34-5.24,3.1-7.15,2.57a67.39,67.39,0,0,0-8.54-1.39,67.34,67.34,0,0,0-8.53,1.39c-1.91.53-5.86.77-7.14-2.55a69.23,69.23,0,0,0-12.58,3.9c1.39,7.54-.32,12.14-.32,12.14-4,9.31-1.24,21.12-1.24,21.12,6.71,22.27,22,21.16,29.81,21.15,9.14,0,22.92,0,29.82-21.15,0,0,2.72-11.81-1.24-21.12C227.26,243,225.5,238.26,227,230.5Z" transform="translate(-11.46 -200.28)" fill="#ff5722" stroke="#000" stroke-miterlimit="10"/><path d="M192.66,259.45a3.34,3.34,0,0,1,.24-4.14l2.52-2.68c1-1.09,1.06-2,.09-2a5.74,5.74,0,0,0-3.52,2.06l-3,3.5-.75.91c-.41.51-.75-.29-.75-1.78v-9.51c0-1.49-.64-2.71-1.44-2.71s-1.45,1.22-1.45,2.71v18.23c0,1.49.65,2.7,1.45,2.7s1.44-1.21,1.44-2.7v-.65a7,7,0,0,1,.75-3.54c.42-.46,1.46.15,2.33,1.37l2.4,3.33a5.16,5.16,0,0,0,3.37,2.19c1,0,1-1,.16-2.16Z" transform="translate(-11.46 -200.28)" fill="#fff"/><path d="M212.85,250.66a1.35,1.35,0,0,0-1.36,1.22c-.05.67-.68,0-2-.75a6,6,0,0,0-3.2-.84c-3.7,0-7.26,3.1-7.26,8.56,0,4.46,2.86,7.86,6.86,7.86a6.33,6.33,0,0,0,3.26-.84c1.29-.75,1.93-1.46,1.93-1v.9c0,4.06-2.2,5.63-5.19,5.63a9.91,9.91,0,0,1-2.46-.31c-1.32-.35-2.43-.46-2.64.16s.68,1.78,2.13,2.12a13.16,13.16,0,0,0,2.87.33,8.54,8.54,0,0,0,5.86-1.94c1.56-1.39,2.3-3.66,2.3-7.35v-9.36c0-.85,0-1.57,0-2.22C214.07,251.65,213.55,250.66,212.85,250.66Zm-1.75,9.26a5,5,0,0,1-.24,1.56,4.27,4.27,0,0,1-4.06,3c-3.16,0-4.76-2.63-4.76-5.8,0-3.73,2-6.09,4.79-6.09a4.22,4.22,0,0,1,4.1,3.1,4,4,0,0,1,.17,1.33Z" transform="translate(-11.46 -200.28)" fill="#fff"/><path d="M185.46,205.8a.77.77,0,0,1-1.46.49.77.77,0,1,1,1.46-.49Z" transform="translate(-11.46 -200.28)" fill="#fff"/><path d="M187.58,205.19a.77.77,0,0,1-1.48.42.77.77,0,1,1,1.48-.42Z" transform="translate(-11.46 -200.28)" fill="#fff"/><path d="M189.73,204.68a.8.8,0,0,1-.58.92.77.77,0,0,1-.35-1.5A.77.77,0,0,1,189.73,204.68Z" transform="translate(-11.46 -200.28)" fill="#fff"/><path d="M191.89,204.27a.78.78,0,0,1-.61.89.77.77,0,0,1-.28-1.51A.75.75,0,0,1,191.89,204.27Z" transform="translate(-11.46 -200.28)" fill="#fff"/><path d="M194.08,204a.78.78,0,0,1-.66.85.75.75,0,0,1-.86-.64.78.78,0,0,1,.65-.88A.76.76,0,0,1,194.08,204Z" transform="translate(-11.46 -200.28)" fill="#fff"/><path d="M196.27,203.75a.77.77,0,0,1-.69.82.75.75,0,0,1-.83-.68.77.77,0,0,1,.69-.85A.75.75,0,0,1,196.27,203.75Z" transform="translate(-11.46 -200.28)" fill="#fff"/><path d="M198.48,203.65a.81.81,0,0,1-.74.8.77.77,0,0,1-.05-1.54A.75.75,0,0,1,198.48,203.65Z" transform="translate(-11.46 -200.28)" fill="#fff"/><path d="M200.68,203.68a.8.8,0,0,1-.78.76.78.78,0,0,1-.75-.78.76.76,0,0,1,.79-.76A.74.74,0,0,1,200.68,203.68Z" transform="translate(-11.46 -200.28)" fill="#fff"/><path d="M202.88,203.85a.77.77,0,0,1-.82.7.78.78,0,0,1-.7-.83.76.76,0,1,1,1.52.13Z" transform="translate(-11.46 -200.28)" fill="#fff"/><path d="M205.07,204.16a.78.78,0,0,1-.87.64.79.79,0,0,1-.64-.89.73.73,0,0,1,.86-.63A.76.76,0,0,1,205.07,204.16Z" transform="translate(-11.46 -200.28)" fill="#fff"/><path d="M207.22,204.62a.75.75,0,0,1-.9.56.8.8,0,0,1-.59-.91.74.74,0,0,1,.92-.59A.78.78,0,0,1,207.22,204.62Z" transform="translate(-11.46 -200.28)" fill="#fff"/><path d="M209.34,205.23a.77.77,0,0,1-.94.49.75.75,0,0,1-.52-.93.79.79,0,0,1,1-.55A.77.77,0,0,1,209.34,205.23Z" transform="translate(-11.46 -200.28)" fill="#fff"/><path d="M211.41,206a.8.8,0,0,1-1,.45.76.76,0,0,1-.43-1,.77.77,0,0,1,1-.45A.73.73,0,0,1,211.41,206Z" transform="translate(-11.46 -200.28)" fill="#fff"/><path d="M213.39,207a.76.76,0,1,1-1.37-.68.76.76,0,1,1,1.37.68Z" transform="translate(-11.46 -200.28)" fill="#fff"/><path d="M188.47,208.57a.78.78,0,0,1-1.46.56.78.78,0,1,1,1.46-.56Z" transform="translate(-11.46 -200.28)" fill="#fff"/><path d="M190.61,207.92a.77.77,0,0,1-.54,1,.78.78,0,0,1-.95-.51.78.78,0,0,1,1.49-.44Z" transform="translate(-11.46 -200.28)" fill="#fff"/><path d="M192.8,207.46a.76.76,0,0,1-.61.89.77.77,0,1,1,.61-.89Z" transform="translate(-11.46 -200.28)" fill="#fff"/><path d="M195,207.15a.78.78,0,0,1-1.54.19.78.78,0,0,1,1.54-.19Z" transform="translate(-11.46 -200.28)" fill="#fff"/><path d="M197.25,207a.78.78,0,0,1-1.55.09.77.77,0,0,1,.74-.81A.75.75,0,0,1,197.25,207Z" transform="translate(-11.46 -200.28)" fill="#fff"/><path d="M199.49,207a.79.79,0,0,1-.79.75.77.77,0,0,1-.76-.77.76.76,0,0,1,.79-.76A.73.73,0,0,1,199.49,207Z" transform="translate(-11.46 -200.28)" fill="#fff"/><path d="M201.73,207.2a.79.79,0,0,1-.85.68.76.76,0,0,1-.7-.82.77.77,0,0,1,.84-.71A.76.76,0,0,1,201.73,207.2Z" transform="translate(-11.46 -200.28)" fill="#fff"/><path d="M203.94,207.54a.81.81,0,0,1-.9.63.78.78,0,0,1-.64-.87.79.79,0,0,1,.9-.65A.75.75,0,0,1,203.94,207.54Z" transform="translate(-11.46 -200.28)" fill="#fff"/><path d="M206.12,208a.8.8,0,0,1-.94.57.77.77,0,1,1,.37-1.49A.73.73,0,0,1,206.12,208Z" transform="translate(-11.46 -200.28)" fill="#fff"/><path d="M208.26,208.71a.79.79,0,0,1-1,.5.77.77,0,0,1-.5-1,.75.75,0,0,1,1-.5A.74.74,0,0,1,208.26,208.71Z" transform="translate(-11.46 -200.28)" fill="#fff"/><path d="M210.34,209.54a.78.78,0,0,1-1.44-.59.75.75,0,0,1,1-.42A.76.76,0,0,1,210.34,209.54Z" transform="translate(-11.46 -200.28)" fill="#fff"/><path d="M192.6,211a.8.8,0,0,1-.46,1,.81.81,0,0,1-1-.39.8.8,0,0,1,1.48-.6Z" transform="translate(-11.46 -200.28)" fill="#fff"/><path d="M194.83,210.45a.8.8,0,0,1-1.56.38.8.8,0,0,1,1.56-.38Z" transform="translate(-11.46 -200.28)" fill="#fff"/><path d="M197.11,210.13a.8.8,0,0,1-.7.85.82.82,0,0,1-.89-.65.8.8,0,0,1,1.59-.2Z" transform="translate(-11.46 -200.28)" fill="#fff"/><path d="M199.42,210.09a.79.79,0,0,1-.8.75.77.77,0,1,1,0-1.54A.8.8,0,0,1,199.42,210.09Z" transform="translate(-11.46 -200.28)" fill="#fff"/><path d="M201.71,210.27a.8.8,0,0,1-1.59-.16.8.8,0,0,1,1.59.16Z" transform="translate(-11.46 -200.28)" fill="#fff"/><path d="M204,210.69a.8.8,0,1,1-.63-.93A.8.8,0,0,1,204,210.69Z" transform="translate(-11.46 -200.28)" fill="#fff"/><path d="M206.2,211.3a.78.78,0,0,1-1,.5.81.81,0,0,1-.56-1,.77.77,0,0,1,1-.52A.78.78,0,0,1,206.2,211.3Z" transform="translate(-11.46 -200.28)" fill="#fff"/><path d="M106.1,220.91c.93-3.71,5.56-8.17,15.58-8.07,10-.1,14.66,4.36,15.59,8.07.69,2.76.61,4.7.1,6.05A89.87,89.87,0,0,1,150,230.5c.08-.38.15-.76.24-1.15,0,0,4.47-17.26-13.21-25.61a32.63,32.63,0,0,0-15.37-2.93,32.61,32.61,0,0,0-15.36,2.93c-17.68,8.35-13.21,25.61-13.21,25.61.12.52.22,1,.32,1.53A69.23,69.23,0,0,1,106,227C105.49,225.63,105.41,223.68,106.1,220.91Z" transform="translate(-11.46 -200.28)" fill="#ff5722" stroke="#000" stroke-miterlimit="10"/><path d="M150,230.5A89.87,89.87,0,0,0,137.37,227c-1.28,3.34-5.24,3.1-7.15,2.57a67.39,67.39,0,0,0-8.54-1.39,67.34,67.34,0,0,0-8.53,1.39c-1.91.53-5.86.77-7.14-2.55a69.23,69.23,0,0,0-12.58,3.9c1.39,7.54-.32,12.14-.32,12.14-4,9.31-1.24,21.12-1.24,21.12,6.71,22.27,22,21.16,29.81,21.15,9.14,0,22.92,0,29.82-21.15,0,0,2.72-11.81-1.24-21.12C150.26,243,148.5,238.26,150,230.5Z" transform="translate(-11.46 -200.28)" fill="#ff5722" stroke="#000" stroke-miterlimit="10"/><path d="M115.66,259.45a3.34,3.34,0,0,1,.24-4.14l2.52-2.68c1-1.09,1.06-2,.09-2a5.74,5.74,0,0,0-3.52,2.06l-3,3.5-.75.91c-.41.51-.75-.29-.75-1.78v-9.51c0-1.49-.64-2.71-1.44-2.71s-1.45,1.22-1.45,2.71v18.23c0,1.49.65,2.7,1.45,2.7s1.44-1.21,1.44-2.7v-.65a7,7,0,0,1,.75-3.54c.42-.46,1.46.15,2.33,1.37l2.4,3.33a5.16,5.16,0,0,0,3.37,2.19c1,0,1-1,.16-2.16Z" transform="translate(-11.46 -200.28)" fill="#fff"/><path d="M135.85,250.66a1.35,1.35,0,0,0-1.36,1.22c-.05.67-.68,0-2-.75a6,6,0,0,0-3.2-.84c-3.7,0-7.26,3.1-7.26,8.56,0,4.46,2.86,7.86,6.86,7.86a6.33,6.33,0,0,0,3.26-.84c1.29-.75,1.93-1.46,1.93-1v.9c0,4.06-2.2,5.63-5.19,5.63a9.91,9.91,0,0,1-2.46-.31c-1.32-.35-2.43-.46-2.64.16s.68,1.78,2.13,2.12a13.16,13.16,0,0,0,2.87.33,8.54,8.54,0,0,0,5.86-1.94c1.56-1.39,2.3-3.66,2.3-7.35v-9.36c0-.85,0-1.57,0-2.22C137.07,251.65,136.55,250.66,135.85,250.66Zm-1.75,9.26a5,5,0,0,1-.24,1.56,4.27,4.27,0,0,1-4.06,3c-3.16,0-4.76-2.63-4.76-5.8,0-3.73,2-6.09,4.79-6.09a4.22,4.22,0,0,1,4.1,3.1,4,4,0,0,1,.17,1.33Z" transform="translate(-11.46 -200.28)" fill="#fff"/><path d="M108.46,205.8a.77.77,0,0,1-1.46.49.77.77,0,1,1,1.46-.49Z" transform="translate(-11.46 -200.28)" fill="#fff"/><path d="M110.58,205.19a.77.77,0,1,1-1.48.42.77.77,0,1,1,1.48-.42Z" transform="translate(-11.46 -200.28)" fill="#fff"/><path d="M112.73,204.68a.8.8,0,0,1-.58.92.77.77,0,0,1-.35-1.5A.77.77,0,0,1,112.73,204.68Z" transform="translate(-11.46 -200.28)" fill="#fff"/><path d="M114.89,204.27a.78.78,0,0,1-.61.89.77.77,0,0,1-.28-1.51A.75.75,0,0,1,114.89,204.27Z" transform="translate(-11.46 -200.28)" fill="#fff"/><path d="M117.08,204a.78.78,0,0,1-.66.85.75.75,0,0,1-.86-.64.78.78,0,0,1,.65-.88A.76.76,0,0,1,117.08,204Z" transform="translate(-11.46 -200.28)" fill="#fff"/><path d="M119.27,203.75a.77.77,0,0,1-.69.82.75.75,0,0,1-.83-.68.77.77,0,0,1,.69-.85A.75.75,0,0,1,119.27,203.75Z" transform="translate(-11.46 -200.28)" fill="#fff"/><path d="M121.48,203.65a.81.81,0,0,1-.74.8.77.77,0,0,1,0-1.54A.75.75,0,0,1,121.48,203.65Z" transform="translate(-11.46 -200.28)" fill="#fff"/><path d="M123.68,203.68a.8.8,0,0,1-.78.76.78.78,0,0,1-.75-.78.76.76,0,0,1,.79-.76A.74.74,0,0,1,123.68,203.68Z" transform="translate(-11.46 -200.28)" fill="#fff"/><path d="M125.88,203.85a.77.77,0,0,1-.82.7.78.78,0,0,1-.7-.83.76.76,0,1,1,1.52.13Z" transform="translate(-11.46 -200.28)" fill="#fff"/><path d="M128.07,204.16a.78.78,0,0,1-.87.64.79.79,0,0,1-.64-.89.73.73,0,0,1,.86-.63A.76.76,0,0,1,128.07,204.16Z" transform="translate(-11.46 -200.28)" fill="#fff"/><path d="M130.22,204.62a.75.75,0,0,1-.9.56.8.8,0,0,1-.59-.91.74.74,0,0,1,.92-.59A.78.78,0,0,1,130.22,204.62Z" transform="translate(-11.46 -200.28)" fill="#fff"/><path d="M132.34,205.23a.77.77,0,0,1-.94.49.75.75,0,0,1-.52-.93.79.79,0,0,1,1-.55A.77.77,0,0,1,132.34,205.23Z" transform="translate(-11.46 -200.28)" fill="#fff"/><path d="M134.41,206a.8.8,0,0,1-1,.45.76.76,0,0,1-.43-1,.77.77,0,0,1,1-.45A.73.73,0,0,1,134.41,206Z" transform="translate(-11.46 -200.28)" fill="#fff"/><path d="M136.39,207a.76.76,0,1,1-1.37-.68.76.76,0,1,1,1.37.68Z" transform="translate(-11.46 -200.28)" fill="#fff"/><path d="M111.47,208.57a.78.78,0,0,1-1.46.56.78.78,0,1,1,1.46-.56Z" transform="translate(-11.46 -200.28)" fill="#fff"/><path d="M113.61,207.92a.77.77,0,0,1-.54,1,.78.78,0,0,1-.95-.51.78.78,0,0,1,1.49-.44Z" transform="translate(-11.46 -200.28)" fill="#fff"/><path d="M115.8,207.46a.76.76,0,0,1-.61.89.77.77,0,1,1,.61-.89Z" transform="translate(-11.46 -200.28)" fill="#fff"/><path d="M118,207.15a.78.78,0,0,1-1.54.19.78.78,0,0,1,1.54-.19Z" transform="translate(-11.46 -200.28)" fill="#fff"/><path d="M120.25,207a.78.78,0,0,1-1.55.09.77.77,0,0,1,.74-.81A.75.75,0,0,1,120.25,207Z" transform="translate(-11.46 -200.28)" fill="#fff"/><path d="M122.49,207a.79.79,0,0,1-.79.75.77.77,0,0,1-.76-.77.76.76,0,0,1,.79-.76A.73.73,0,0,1,122.49,207Z" transform="translate(-11.46 -200.28)" fill="#fff"/><path d="M124.73,207.2a.79.79,0,0,1-.85.68.76.76,0,0,1-.7-.82.77.77,0,0,1,.84-.71A.76.76,0,0,1,124.73,207.2Z" transform="translate(-11.46 -200.28)" fill="#fff"/><path d="M126.94,207.54a.81.81,0,0,1-.9.63.78.78,0,0,1-.64-.87.79.79,0,0,1,.9-.65A.75.75,0,0,1,126.94,207.54Z" transform="translate(-11.46 -200.28)" fill="#fff"/><path d="M129.12,208a.8.8,0,0,1-.94.57.77.77,0,1,1,.37-1.49A.73.73,0,0,1,129.12,208Z" transform="translate(-11.46 -200.28)" fill="#fff"/><path d="M131.26,208.71a.79.79,0,0,1-1,.5.77.77,0,0,1-.5-1,.75.75,0,0,1,1-.5A.74.74,0,0,1,131.26,208.71Z" transform="translate(-11.46 -200.28)" fill="#fff"/><path d="M133.34,209.54a.78.78,0,0,1-1.44-.59.75.75,0,0,1,1-.42A.76.76,0,0,1,133.34,209.54Z" transform="translate(-11.46 -200.28)" fill="#fff"/><path d="M115.6,211a.8.8,0,0,1-.46,1,.81.81,0,0,1-1-.39.8.8,0,0,1,1.48-.6Z" transform="translate(-11.46 -200.28)" fill="#fff"/><path d="M117.83,210.45a.8.8,0,0,1-1.56.38.8.8,0,0,1,1.56-.38Z" transform="translate(-11.46 -200.28)" fill="#fff"/><path d="M120.11,210.13a.8.8,0,0,1-.7.85.82.82,0,0,1-.89-.65.8.8,0,0,1,1.59-.2Z" transform="translate(-11.46 -200.28)" fill="#fff"/><path d="M122.42,210.09a.79.79,0,0,1-.8.75.77.77,0,1,1,0-1.54A.8.8,0,0,1,122.42,210.09Z" transform="translate(-11.46 -200.28)" fill="#fff"/><path d="M124.71,210.27a.8.8,0,0,1-1.59-.16.8.8,0,0,1,1.59.16Z" transform="translate(-11.46 -200.28)" fill="#fff"/><path d="M127,210.69a.8.8,0,1,1-.63-.93A.8.8,0,0,1,127,210.69Z" transform="translate(-11.46 -200.28)" fill="#fff"/><path d="M129.2,211.3a.78.78,0,0,1-1,.5.81.81,0,0,1-.56-1,.77.77,0,0,1,1-.52A.78.78,0,0,1,129.2,211.3Z" transform="translate(-11.46 -200.28)" fill="#fff"/><path d="M27.1,220.91c.93-3.71,5.56-8.17,15.58-8.07,10-.1,14.66,4.36,15.59,8.07.69,2.76.61,4.7.1,6.05A89.87,89.87,0,0,1,71,230.5c.08-.38.15-.76.24-1.15,0,0,4.47-17.26-13.21-25.61a32.63,32.63,0,0,0-15.37-2.93,32.61,32.61,0,0,0-15.36,2.93c-17.68,8.35-13.21,25.61-13.21,25.61.12.52.22,1,.32,1.53A69.23,69.23,0,0,1,27,227C26.49,225.63,26.41,223.68,27.1,220.91Z" transform="translate(-11.46 -200.28)" fill="#ff5722" stroke="#000" stroke-miterlimit="10"/><path d="M71,230.5A89.87,89.87,0,0,0,58.37,227c-1.28,3.34-5.24,3.1-7.15,2.57a67.39,67.39,0,0,0-8.54-1.39,67.34,67.34,0,0,0-8.53,1.39c-1.91.53-5.86.77-7.14-2.55a69.23,69.23,0,0,0-12.58,3.9c1.39,7.54-.32,12.14-.32,12.14-4,9.31-1.24,21.12-1.24,21.12,6.71,22.27,22,21.16,29.81,21.15,9.14,0,22.92,0,29.82-21.15,0,0,2.72-11.81-1.24-21.12C71.26,243,69.5,238.26,71,230.5Z" transform="translate(-11.46 -200.28)" fill="#ff5722" stroke="#000" stroke-miterlimit="10"/><path d="M36.66,259.45a3.34,3.34,0,0,1,.24-4.14l2.52-2.68c1-1.09,1.06-2,.09-2A5.74,5.74,0,0,0,36,252.72l-3,3.5-.75.91c-.41.51-.75-.29-.75-1.78v-9.51c0-1.49-.64-2.71-1.44-2.71s-1.45,1.22-1.45,2.71v18.23c0,1.49.65,2.7,1.45,2.7s1.44-1.21,1.44-2.7v-.65a7,7,0,0,1,.75-3.54c.42-.46,1.46.15,2.33,1.37l2.4,3.33a5.16,5.16,0,0,0,3.37,2.19c1,0,1-1,.16-2.16Z" transform="translate(-11.46 -200.28)" fill="#fff"/><path d="M56.85,250.66a1.35,1.35,0,0,0-1.36,1.22c-.05.67-.68,0-2-.75a6,6,0,0,0-3.2-.84c-3.7,0-7.26,3.1-7.26,8.56,0,4.46,2.86,7.86,6.86,7.86a6.33,6.33,0,0,0,3.26-.84c1.29-.75,1.93-1.46,1.93-1v.9c0,4.06-2.2,5.63-5.19,5.63a9.91,9.91,0,0,1-2.46-.31c-1.32-.35-2.43-.46-2.64.16s.68,1.78,2.13,2.12a13.16,13.16,0,0,0,2.87.33,8.54,8.54,0,0,0,5.86-1.94c1.56-1.39,2.3-3.66,2.3-7.35v-9.36c0-.85,0-1.57,0-2.22C58.07,251.65,57.55,250.66,56.85,250.66Zm-1.75,9.26a5,5,0,0,1-.24,1.56,4.27,4.27,0,0,1-4.06,3c-3.16,0-4.76-2.63-4.76-5.8,0-3.73,2-6.09,4.79-6.09a4.22,4.22,0,0,1,4.1,3.1A4,4,0,0,1,55.1,257Z" transform="translate(-11.46 -200.28)" fill="#fff"/><path d="M29.46,205.8a.77.77,0,0,1-1.46.49.77.77,0,1,1,1.46-.49Z" transform="translate(-11.46 -200.28)" fill="#fff"/><path d="M31.58,205.19a.77.77,0,0,1-1.48.42.77.77,0,1,1,1.48-.42Z" transform="translate(-11.46 -200.28)" fill="#fff"/><path d="M33.73,204.68a.8.8,0,0,1-.58.92.77.77,0,0,1-.35-1.5A.77.77,0,0,1,33.73,204.68Z" transform="translate(-11.46 -200.28)" fill="#fff"/><path d="M35.89,204.27a.78.78,0,0,1-.61.89.77.77,0,0,1-.28-1.51A.75.75,0,0,1,35.89,204.27Z" transform="translate(-11.46 -200.28)" fill="#fff"/><path d="M38.08,204a.78.78,0,0,1-.66.85.75.75,0,0,1-.86-.64.78.78,0,0,1,.65-.88A.76.76,0,0,1,38.08,204Z" transform="translate(-11.46 -200.28)" fill="#fff"/><path d="M40.27,203.75a.77.77,0,0,1-.69.82.75.75,0,0,1-.83-.68.77.77,0,0,1,.69-.85A.75.75,0,0,1,40.27,203.75Z" transform="translate(-11.46 -200.28)" fill="#fff"/><path d="M42.48,203.65a.81.81,0,0,1-.74.8.77.77,0,0,1-.05-1.54A.75.75,0,0,1,42.48,203.65Z" transform="translate(-11.46 -200.28)" fill="#fff"/><path d="M44.68,203.68a.8.8,0,0,1-.78.76.78.78,0,0,1-.75-.78.76.76,0,0,1,.79-.76A.74.74,0,0,1,44.68,203.68Z" transform="translate(-11.46 -200.28)" fill="#fff"/><path d="M46.88,203.85a.77.77,0,0,1-.82.7.78.78,0,0,1-.7-.83.76.76,0,1,1,1.52.13Z" transform="translate(-11.46 -200.28)" fill="#fff"/><path d="M49.07,204.16a.78.78,0,0,1-.87.64.79.79,0,0,1-.64-.89.73.73,0,0,1,.86-.63A.76.76,0,0,1,49.07,204.16Z" transform="translate(-11.46 -200.28)" fill="#fff"/><path d="M51.22,204.62a.75.75,0,0,1-.9.56.8.8,0,0,1-.59-.91.74.74,0,0,1,.92-.59A.78.78,0,0,1,51.22,204.62Z" transform="translate(-11.46 -200.28)" fill="#fff"/><path d="M53.34,205.23a.77.77,0,0,1-.94.49.75.75,0,0,1-.52-.93.79.79,0,0,1,1-.55A.77.77,0,0,1,53.34,205.23Z" transform="translate(-11.46 -200.28)" fill="#fff"/><path d="M55.41,206a.8.8,0,0,1-1,.45.76.76,0,0,1-.43-1,.77.77,0,0,1,1-.45A.73.73,0,0,1,55.41,206Z" transform="translate(-11.46 -200.28)" fill="#fff"/><path d="M57.39,207a.76.76,0,1,1-1.37-.68.76.76,0,1,1,1.37.68Z" transform="translate(-11.46 -200.28)" fill="#fff"/><path d="M32.47,208.57a.78.78,0,0,1-1.46.56.78.78,0,1,1,1.46-.56Z" transform="translate(-11.46 -200.28)" fill="#fff"/><path d="M34.61,207.92a.77.77,0,0,1-.54,1,.78.78,0,0,1-1-.51.78.78,0,0,1,1.49-.44Z" transform="translate(-11.46 -200.28)" fill="#fff"/><path d="M36.8,207.46a.76.76,0,0,1-.61.89.77.77,0,1,1,.61-.89Z" transform="translate(-11.46 -200.28)" fill="#fff"/><path d="M39,207.15a.78.78,0,0,1-1.54.19.78.78,0,0,1,1.54-.19Z" transform="translate(-11.46 -200.28)" fill="#fff"/><path d="M41.25,207a.78.78,0,0,1-1.55.09.77.77,0,0,1,.74-.81A.75.75,0,0,1,41.25,207Z" transform="translate(-11.46 -200.28)" fill="#fff"/><path d="M43.49,207a.79.79,0,0,1-.79.75.77.77,0,0,1-.76-.77.76.76,0,0,1,.79-.76A.73.73,0,0,1,43.49,207Z" transform="translate(-11.46 -200.28)" fill="#fff"/><path d="M45.73,207.2a.79.79,0,0,1-.85.68.76.76,0,0,1-.7-.82.77.77,0,0,1,.84-.71A.76.76,0,0,1,45.73,207.2Z" transform="translate(-11.46 -200.28)" fill="#fff"/><path d="M47.94,207.54a.81.81,0,0,1-.9.63.78.78,0,0,1-.64-.87.79.79,0,0,1,.9-.65A.75.75,0,0,1,47.94,207.54Z" transform="translate(-11.46 -200.28)" fill="#fff"/><path d="M50.12,208a.8.8,0,0,1-.94.57.77.77,0,1,1,.37-1.49A.73.73,0,0,1,50.12,208Z" transform="translate(-11.46 -200.28)" fill="#fff"/><path d="M52.26,208.71a.79.79,0,0,1-1,.5.77.77,0,0,1-.5-1,.75.75,0,0,1,1-.5A.74.74,0,0,1,52.26,208.71Z" transform="translate(-11.46 -200.28)" fill="#fff"/><path d="M54.34,209.54A.78.78,0,0,1,52.9,209a.75.75,0,0,1,1-.42A.76.76,0,0,1,54.34,209.54Z" transform="translate(-11.46 -200.28)" fill="#fff"/><path d="M36.6,211a.8.8,0,0,1-.46,1,.81.81,0,0,1-1-.39.8.8,0,0,1,1.48-.6Z" transform="translate(-11.46 -200.28)" fill="#fff"/><path d="M38.83,210.45a.8.8,0,0,1-1.56.38.8.8,0,0,1,1.56-.38Z" transform="translate(-11.46 -200.28)" fill="#fff"/><path d="M41.11,210.13a.8.8,0,0,1-.7.85.82.82,0,0,1-.89-.65.8.8,0,0,1,1.59-.2Z" transform="translate(-11.46 -200.28)" fill="#fff"/><path d="M43.42,210.09a.79.79,0,0,1-.8.75.77.77,0,1,1,0-1.54A.8.8,0,0,1,43.42,210.09Z" transform="translate(-11.46 -200.28)" fill="#fff"/><path d="M45.71,210.27a.8.8,0,0,1-1.59-.16.8.8,0,0,1,1.59.16Z" transform="translate(-11.46 -200.28)" fill="#fff"/><path d="M48,210.69a.8.8,0,1,1-.63-.93A.8.8,0,0,1,48,210.69Z" transform="translate(-11.46 -200.28)" fill="#fff"/><path d="M50.2,211.3a.78.78,0,0,1-1,.5.81.81,0,0,1-.56-1,.77.77,0,0,1,1-.52A.78.78,0,0,1,50.2,211.3Z" transform="translate(-11.46 -200.28)" fill="#fff"/></svg>