<svg id="Layer_1" data-name="Layer 1" xmlns="http://www.w3.org/2000/svg" viewBox="0 0 217.45 85.61"><title>rate_1</title><path d="M28.1,32.91c.93-3.71,5.56-8.17,15.58-8.07,10-.1,14.66,4.36,15.59,8.07.69,2.76.61,4.7.1,6.05A89.87,89.87,0,0,1,72,42.5c.08-.38.15-.76.24-1.15,0,0,4.47-17.26-13.21-25.61a32.63,32.63,0,0,0-15.37-2.93,32.61,32.61,0,0,0-15.36,2.93C10.64,24.09,15.11,41.35,15.11,41.35c.12.52.22,1,.32,1.53A69.23,69.23,0,0,1,28,39C27.49,37.63,27.41,35.68,28.1,32.91Z" transform="translate(-12.46 -12.28)" fill="#ff5722" stroke="#000" stroke-miterlimit="10"/><path d="M72,42.5A89.87,89.87,0,0,0,59.37,39c-1.28,3.34-5.24,3.1-7.15,2.57a67.39,67.39,0,0,0-8.54-1.39,67.34,67.34,0,0,0-8.53,1.39c-1.91.53-5.86.77-7.14-2.55a69.23,69.23,0,0,0-12.58,3.9C16.82,50.42,15.11,55,15.11,55c-4,9.31-1.24,21.12-1.24,21.12,6.71,22.27,22,21.16,29.81,21.15,9.14,0,22.92,0,29.82-21.15,0,0,2.72-11.81-1.24-21.12C72.26,55,70.5,50.26,72,42.5Z" transform="translate(-12.46 -12.28)" fill="#ff5722" stroke="#000" stroke-miterlimit="10"/><path d="M37.66,71.45a3.34,3.34,0,0,1,.24-4.14l2.52-2.68c1-1.09,1.06-2,.09-2A5.74,5.74,0,0,0,37,64.72l-3,3.5-.75.91c-.41.51-.75-.29-.75-1.78V57.84c0-1.49-.64-2.71-1.44-2.71s-1.45,1.22-1.45,2.71V76.07c0,1.49.65,2.7,1.45,2.7s1.44-1.21,1.44-2.7v-.65a7,7,0,0,1,.75-3.54c.42-.46,1.46.15,2.33,1.37L38,76.58a5.16,5.16,0,0,0,3.37,2.19c1,0,1-1,.16-2.16Z" transform="translate(-12.46 -12.28)" fill="#fff"/><path d="M57.85,62.66a1.35,1.35,0,0,0-1.36,1.22c-.05.67-.68,0-2-.75a6,6,0,0,0-3.2-.84c-3.7,0-7.26,3.1-7.26,8.56,0,4.46,2.86,7.86,6.86,7.86a6.33,6.33,0,0,0,3.26-.84c1.29-.75,1.93-1.46,1.93-1v.9c0,4.06-2.2,5.63-5.19,5.63a9.91,9.91,0,0,1-2.46-.31c-1.32-.35-2.43-.46-2.64.16s.68,1.78,2.13,2.12a13.16,13.16,0,0,0,2.87.33A8.54,8.54,0,0,0,56.7,83.8c1.56-1.39,2.3-3.66,2.3-7.35V67.09c0-.85,0-1.57,0-2.22C59.07,63.65,58.55,62.66,57.85,62.66ZM56.1,71.92a5,5,0,0,1-.24,1.56,4.27,4.27,0,0,1-4.06,3c-3.16,0-4.76-2.63-4.76-5.8,0-3.73,2-6.09,4.79-6.09a4.22,4.22,0,0,1,4.1,3.1A4,4,0,0,1,56.1,69Z" transform="translate(-12.46 -12.28)" fill="#fff"/><path d="M30.46,17.8a.77.77,0,0,1-1.46.49.77.77,0,1,1,1.46-.49Z" transform="translate(-12.46 -12.28)" fill="#fff"/><path d="M32.58,17.19a.77.77,0,1,1-1.48.42.77.77,0,1,1,1.48-.42Z" transform="translate(-12.46 -12.28)" fill="#fff"/><path d="M34.73,16.68a.8.8,0,0,1-.58.92.77.77,0,0,1-.35-1.5A.77.77,0,0,1,34.73,16.68Z" transform="translate(-12.46 -12.28)" fill="#fff"/><path d="M36.89,16.27a.78.78,0,0,1-.61.89A.77.77,0,0,1,36,15.65.75.75,0,0,1,36.89,16.27Z" transform="translate(-12.46 -12.28)" fill="#fff"/><path d="M39.08,16a.78.78,0,0,1-.66.85.75.75,0,0,1-.86-.64.78.78,0,0,1,.65-.88A.76.76,0,0,1,39.08,16Z" transform="translate(-12.46 -12.28)" fill="#fff"/><path d="M41.27,15.75a.77.77,0,0,1-.69.82.75.75,0,0,1-.83-.68.77.77,0,0,1,.69-.85A.75.75,0,0,1,41.27,15.75Z" transform="translate(-12.46 -12.28)" fill="#fff"/><path d="M43.48,15.65a.81.81,0,0,1-.74.8.77.77,0,0,1-.05-1.54A.75.75,0,0,1,43.48,15.65Z" transform="translate(-12.46 -12.28)" fill="#fff"/><path d="M45.68,15.68a.8.8,0,0,1-.78.76.78.78,0,0,1-.75-.78.76.76,0,0,1,.79-.76A.74.74,0,0,1,45.68,15.68Z" transform="translate(-12.46 -12.28)" fill="#fff"/><path d="M47.88,15.85a.77.77,0,0,1-.82.7.78.78,0,0,1-.7-.83.76.76,0,1,1,1.52.13Z" transform="translate(-12.46 -12.28)" fill="#fff"/><path d="M50.07,16.16a.78.78,0,0,1-.87.64.79.79,0,0,1-.64-.89.73.73,0,0,1,.86-.63A.76.76,0,0,1,50.07,16.16Z" transform="translate(-12.46 -12.28)" fill="#fff"/><path d="M52.22,16.62a.75.75,0,0,1-.9.56.8.8,0,0,1-.59-.91.74.74,0,0,1,.92-.59A.78.78,0,0,1,52.22,16.62Z" transform="translate(-12.46 -12.28)" fill="#fff"/><path d="M54.34,17.23a.77.77,0,0,1-.94.49.75.75,0,0,1-.52-.93.79.79,0,0,1,1-.55A.77.77,0,0,1,54.34,17.23Z" transform="translate(-12.46 -12.28)" fill="#fff"/><path d="M56.41,18a.8.8,0,0,1-1,.45.76.76,0,0,1-.43-1A.77.77,0,0,1,56,17,.73.73,0,0,1,56.41,18Z" transform="translate(-12.46 -12.28)" fill="#fff"/><path d="M58.39,19A.76.76,0,1,1,57,18.29a.76.76,0,1,1,1.37.68Z" transform="translate(-12.46 -12.28)" fill="#fff"/><path d="M33.47,20.57a.78.78,0,0,1-1.46.56.78.78,0,0,1,1.46-.56Z" transform="translate(-12.46 -12.28)" fill="#fff"/><path d="M35.61,19.92a.77.77,0,0,1-.54.95.78.78,0,0,1-1-.51.78.78,0,0,1,1.49-.44Z" transform="translate(-12.46 -12.28)" fill="#fff"/><path d="M37.8,19.46a.76.76,0,0,1-.61.89.77.77,0,1,1,.61-.89Z" transform="translate(-12.46 -12.28)" fill="#fff"/><path d="M40,19.15a.78.78,0,0,1-1.54.19A.78.78,0,0,1,40,19.15Z" transform="translate(-12.46 -12.28)" fill="#fff"/><path d="M42.25,19a.78.78,0,0,1-1.55.09.77.77,0,0,1,.74-.81A.75.75,0,0,1,42.25,19Z" transform="translate(-12.46 -12.28)" fill="#fff"/><path d="M44.49,19a.79.79,0,0,1-.79.75.77.77,0,0,1-.76-.77.76.76,0,0,1,.79-.76A.73.73,0,0,1,44.49,19Z" transform="translate(-12.46 -12.28)" fill="#fff"/><path d="M46.73,19.2a.79.79,0,0,1-.85.68.76.76,0,0,1-.7-.82.77.77,0,0,1,.84-.71A.76.76,0,0,1,46.73,19.2Z" transform="translate(-12.46 -12.28)" fill="#fff"/><path d="M48.94,19.54a.81.81,0,0,1-.9.63.78.78,0,0,1-.64-.87.79.79,0,0,1,.9-.65A.75.75,0,0,1,48.94,19.54Z" transform="translate(-12.46 -12.28)" fill="#fff"/><path d="M51.12,20a.8.8,0,0,1-.94.57.77.77,0,1,1,.37-1.49A.73.73,0,0,1,51.12,20Z" transform="translate(-12.46 -12.28)" fill="#fff"/><path d="M53.26,20.71a.79.79,0,0,1-1,.5.77.77,0,0,1-.5-1,.75.75,0,0,1,1-.5A.74.74,0,0,1,53.26,20.71Z" transform="translate(-12.46 -12.28)" fill="#fff"/><path d="M55.34,21.54A.78.78,0,0,1,53.9,21a.75.75,0,0,1,1-.42A.76.76,0,0,1,55.34,21.54Z" transform="translate(-12.46 -12.28)" fill="#fff"/><path d="M37.6,23a.8.8,0,0,1-.46,1,.81.81,0,0,1-1-.39A.8.8,0,0,1,37.6,23Z" transform="translate(-12.46 -12.28)" fill="#fff"/><path d="M39.83,22.45a.8.8,0,0,1-1.56.38.8.8,0,0,1,1.56-.38Z" transform="translate(-12.46 -12.28)" fill="#fff"/><path d="M42.11,22.13a.8.8,0,0,1-.7.85.82.82,0,0,1-.89-.65.8.8,0,0,1,1.59-.2Z" transform="translate(-12.46 -12.28)" fill="#fff"/><path d="M44.42,22.09a.79.79,0,0,1-.8.75.77.77,0,1,1,0-1.54A.8.8,0,0,1,44.42,22.09Z" transform="translate(-12.46 -12.28)" fill="#fff"/><path d="M46.71,22.27a.8.8,0,0,1-1.59-.16.8.8,0,0,1,1.59.16Z" transform="translate(-12.46 -12.28)" fill="#fff"/><path d="M49,22.69a.8.8,0,1,1-.63-.93A.8.8,0,0,1,49,22.69Z" transform="translate(-12.46 -12.28)" fill="#fff"/><path d="M51.2,23.3a.78.78,0,0,1-1,.5.81.81,0,0,1-.56-.95.77.77,0,0,1,1-.52A.78.78,0,0,1,51.2,23.3Z" transform="translate(-12.46 -12.28)" fill="#fff"/><path d="M183.1,32.91c.93-3.71,5.56-8.17,15.58-8.07,10-.1,14.66,4.36,15.59,8.07.69,2.76.61,4.7.1,6.05A89.87,89.87,0,0,1,227,42.5c.08-.38.15-.76.24-1.15,0,0,4.47-17.26-13.21-25.61a32.63,32.63,0,0,0-15.37-2.93,32.61,32.61,0,0,0-15.36,2.93c-17.68,8.35-13.21,25.61-13.21,25.61.12.52.22,1,.32,1.53A69.23,69.23,0,0,1,183,39C182.49,37.63,182.41,35.68,183.1,32.91Z" transform="translate(-12.46 -12.28)" fill="gray" stroke="#000" stroke-miterlimit="10" opacity="0.8"/><path d="M227,42.5A89.87,89.87,0,0,0,214.37,39c-1.28,3.34-5.24,3.1-7.15,2.57a67.39,67.39,0,0,0-8.54-1.39,67.34,67.34,0,0,0-8.53,1.39c-1.91.53-5.86.77-7.14-2.55a69.23,69.23,0,0,0-12.58,3.9c1.39,7.54-.32,12.14-.32,12.14-4,9.31-1.24,21.12-1.24,21.12,6.71,22.27,22,21.16,29.81,21.15,9.14,0,22.92,0,29.82-21.15,0,0,2.72-11.81-1.24-21.12C227.26,55,225.5,50.26,227,42.5Z" transform="translate(-12.46 -12.28)" fill="gray" stroke="#000" stroke-miterlimit="10" opacity="0.8"/><path d="M185.46,17.8a.77.77,0,0,1-1.46.49.77.77,0,1,1,1.46-.49Z" transform="translate(-12.46 -12.28)" fill="#fff"/><path d="M187.58,17.19a.77.77,0,0,1-1.48.42.77.77,0,1,1,1.48-.42Z" transform="translate(-12.46 -12.28)" fill="#fff"/><path d="M189.73,16.68a.8.8,0,0,1-.58.92.77.77,0,0,1-.35-1.5A.77.77,0,0,1,189.73,16.68Z" transform="translate(-12.46 -12.28)" fill="#fff"/><path d="M191.89,16.27a.78.78,0,0,1-.61.89.77.77,0,0,1-.28-1.51A.75.75,0,0,1,191.89,16.27Z" transform="translate(-12.46 -12.28)" fill="#fff"/><path d="M194.08,16a.78.78,0,0,1-.66.85.75.75,0,0,1-.86-.64.78.78,0,0,1,.65-.88A.76.76,0,0,1,194.08,16Z" transform="translate(-12.46 -12.28)" fill="#fff"/><path d="M196.27,15.75a.77.77,0,0,1-.69.82.75.75,0,0,1-.83-.68.77.77,0,0,1,.69-.85A.75.75,0,0,1,196.27,15.75Z" transform="translate(-12.46 -12.28)" fill="#fff"/><path d="M198.48,15.65a.81.81,0,0,1-.74.8.77.77,0,0,1-.05-1.54A.75.75,0,0,1,198.48,15.65Z" transform="translate(-12.46 -12.28)" fill="#fff"/><path d="M200.68,15.68a.8.8,0,0,1-.78.76.78.78,0,0,1-.75-.78.76.76,0,0,1,.79-.76A.74.74,0,0,1,200.68,15.68Z" transform="translate(-12.46 -12.28)" fill="#fff"/><path d="M202.88,15.85a.77.77,0,0,1-.82.7.78.78,0,0,1-.7-.83.76.76,0,1,1,1.52.13Z" transform="translate(-12.46 -12.28)" fill="#fff"/><path d="M205.07,16.16a.78.78,0,0,1-.87.64.79.79,0,0,1-.64-.89.73.73,0,0,1,.86-.63A.76.76,0,0,1,205.07,16.16Z" transform="translate(-12.46 -12.28)" fill="#fff"/><path d="M207.22,16.62a.75.75,0,0,1-.9.56.8.8,0,0,1-.59-.91.74.74,0,0,1,.92-.59A.78.78,0,0,1,207.22,16.62Z" transform="translate(-12.46 -12.28)" fill="#fff"/><path d="M209.34,17.23a.77.77,0,0,1-.94.49.75.75,0,0,1-.52-.93.79.79,0,0,1,1-.55A.77.77,0,0,1,209.34,17.23Z" transform="translate(-12.46 -12.28)" fill="#fff"/><path d="M211.41,18a.8.8,0,0,1-1,.45.76.76,0,0,1-.43-1,.77.77,0,0,1,1-.45A.73.73,0,0,1,211.41,18Z" transform="translate(-12.46 -12.28)" fill="#fff"/><path d="M213.39,19a.76.76,0,1,1-1.37-.68.76.76,0,1,1,1.37.68Z" transform="translate(-12.46 -12.28)" fill="#fff"/><path d="M188.47,20.57a.78.78,0,0,1-1.46.56.78.78,0,0,1,1.46-.56Z" transform="translate(-12.46 -12.28)" fill="#fff"/><path d="M190.61,19.92a.77.77,0,0,1-.54.95.78.78,0,0,1-.95-.51.78.78,0,0,1,1.49-.44Z" transform="translate(-12.46 -12.28)" fill="#fff"/><path d="M192.8,19.46a.76.76,0,0,1-.61.89.77.77,0,1,1,.61-.89Z" transform="translate(-12.46 -12.28)" fill="#fff"/><path d="M195,19.15a.78.78,0,0,1-1.54.19.78.78,0,0,1,1.54-.19Z" transform="translate(-12.46 -12.28)" fill="#fff"/><path d="M197.25,19a.78.78,0,0,1-1.55.09.77.77,0,0,1,.74-.81A.75.75,0,0,1,197.25,19Z" transform="translate(-12.46 -12.28)" fill="#fff"/><path d="M199.49,19a.79.79,0,0,1-.79.75.77.77,0,0,1-.76-.77.76.76,0,0,1,.79-.76A.73.73,0,0,1,199.49,19Z" transform="translate(-12.46 -12.28)" fill="#fff"/><path d="M201.73,19.2a.79.79,0,0,1-.85.68.76.76,0,0,1-.7-.82.77.77,0,0,1,.84-.71A.76.76,0,0,1,201.73,19.2Z" transform="translate(-12.46 -12.28)" fill="#fff"/><path d="M203.94,19.54a.81.81,0,0,1-.9.63.78.78,0,0,1-.64-.87.79.79,0,0,1,.9-.65A.75.75,0,0,1,203.94,19.54Z" transform="translate(-12.46 -12.28)" fill="#fff"/><path d="M206.12,20a.8.8,0,0,1-.94.57.77.77,0,1,1,.37-1.49A.73.73,0,0,1,206.12,20Z" transform="translate(-12.46 -12.28)" fill="#fff"/><path d="M208.26,20.71a.79.79,0,0,1-1,.5.77.77,0,0,1-.5-1,.75.75,0,0,1,1-.5A.74.74,0,0,1,208.26,20.71Z" transform="translate(-12.46 -12.28)" fill="#fff"/><path d="M210.34,21.54A.78.78,0,0,1,208.9,21a.75.75,0,0,1,1-.42A.76.76,0,0,1,210.34,21.54Z" transform="translate(-12.46 -12.28)" fill="#fff"/><path d="M192.6,23a.8.8,0,0,1-.46,1,.81.81,0,0,1-1-.39.8.8,0,0,1,1.48-.6Z" transform="translate(-12.46 -12.28)" fill="#fff"/><path d="M194.83,22.45a.8.8,0,0,1-1.56.38.8.8,0,0,1,1.56-.38Z" transform="translate(-12.46 -12.28)" fill="#fff"/><path d="M197.11,22.13a.8.8,0,0,1-.7.85.82.82,0,0,1-.89-.65.8.8,0,0,1,1.59-.2Z" transform="translate(-12.46 -12.28)" fill="#fff"/><path d="M199.42,22.09a.79.79,0,0,1-.8.75.77.77,0,1,1,0-1.54A.8.8,0,0,1,199.42,22.09Z" transform="translate(-12.46 -12.28)" fill="#fff"/><path d="M201.71,22.27a.8.8,0,0,1-1.59-.16.8.8,0,0,1,1.59.16Z" transform="translate(-12.46 -12.28)" fill="#fff"/><path d="M204,22.69a.8.8,0,1,1-.63-.93A.8.8,0,0,1,204,22.69Z" transform="translate(-12.46 -12.28)" fill="#fff"/><path d="M206.2,23.3a.78.78,0,0,1-1,.5.81.81,0,0,1-.56-.95.77.77,0,0,1,1-.52A.78.78,0,0,1,206.2,23.3Z" transform="translate(-12.46 -12.28)" fill="#fff"/><path d="M105.57,33c.93-3.71,5.57-8.17,15.59-8.07,10-.1,14.66,4.36,15.58,8.07.69,2.76.62,4.7.1,6a88.18,88.18,0,0,1,12.65,3.54c.08-.38.15-.76.24-1.15,0,0,4.47-17.26-13.21-25.61a32.46,32.46,0,0,0-15.36-2.93,32.42,32.42,0,0,0-15.36,2.93C88.11,24.17,92.58,41.43,92.58,41.43c.12.52.23,1,.32,1.52a70.64,70.64,0,0,1,12.58-3.89C105,37.71,104.88,35.76,105.57,33Z" transform="translate(-12.46 -12.28)" fill="gray" stroke="#000" stroke-miterlimit="10" opacity="0.8"/><path d="M149.49,42.58A88.18,88.18,0,0,0,136.84,39c-1.27,3.34-5.24,3.1-7.15,2.57a67.34,67.34,0,0,0-8.53-1.39,67.67,67.67,0,0,0-8.54,1.39c-1.9.53-5.86.77-7.14-2.55A70.64,70.64,0,0,0,92.9,43c1.4,7.55-.32,12.15-.32,12.15-4,9.31-1.23,21.12-1.23,21.12,6.71,22.27,22,21.16,29.81,21.15,9.14,0,22.91,0,29.81-21.15,0,0,2.72-11.81-1.24-21.12C149.73,55.1,148,50.34,149.49,42.58Z" transform="translate(-12.46 -12.28)" fill="gray" stroke="#000" stroke-miterlimit="10" opacity="0.8"/><path d="M107.93,17.88a.77.77,0,0,1-1.45.49.77.77,0,1,1,1.45-.49Z" transform="translate(-12.46 -12.28)" fill="#fff"/><path d="M110.05,17.27a.76.76,0,1,1-1.47.41.74.74,0,0,1,.53-.94A.75.75,0,0,1,110.05,17.27Z" transform="translate(-12.46 -12.28)" fill="#fff"/><path d="M112.2,16.76a.78.78,0,0,1-.58.92.77.77,0,1,1,.58-.92Z" transform="translate(-12.46 -12.28)" fill="#fff"/><path d="M114.37,16.35a.78.78,0,0,1-.62.89.77.77,0,1,1,.62-.89Z" transform="translate(-12.46 -12.28)" fill="#fff"/><path d="M116.55,16a.78.78,0,0,1-.66.85.76.76,0,0,1-.86-.64.78.78,0,0,1,.66-.88A.75.75,0,0,1,116.55,16Z" transform="translate(-12.46 -12.28)" fill="#fff"/><path d="M118.75,15.83a.79.79,0,0,1-.7.82.76.76,0,0,1-.83-.69.78.78,0,0,1,.7-.84A.76.76,0,0,1,118.75,15.83Z" transform="translate(-12.46 -12.28)" fill="#fff"/><path d="M121,15.73a.78.78,0,0,1-.74.79.76.76,0,0,1-.79-.73.77.77,0,0,1,.74-.8A.73.73,0,0,1,121,15.73Z" transform="translate(-12.46 -12.28)" fill="#fff"/><path d="M123.16,15.76a.78.78,0,0,1-.78.75.77.77,0,0,1,0-1.53A.74.74,0,0,1,123.16,15.76Z" transform="translate(-12.46 -12.28)" fill="#fff"/><path d="M125.36,15.93a.77.77,0,1,1-1.53-.13.75.75,0,0,1,.83-.7A.76.76,0,0,1,125.36,15.93Z" transform="translate(-12.46 -12.28)" fill="#fff"/><path d="M127.54,16.24a.76.76,0,0,1-.87.63A.79.79,0,0,1,126,16a.73.73,0,0,1,.87-.63A.75.75,0,0,1,127.54,16.24Z" transform="translate(-12.46 -12.28)" fill="#fff"/><path d="M129.7,16.7a.76.76,0,0,1-.91.56.8.8,0,0,1-.58-.91.73.73,0,0,1,.91-.59A.78.78,0,0,1,129.7,16.7Z" transform="translate(-12.46 -12.28)" fill="#fff"/><path d="M131.82,17.31a.76.76,0,0,1-.95.48.74.74,0,0,1-.52-.92.79.79,0,0,1,1-.55A.78.78,0,0,1,131.82,17.31Z" transform="translate(-12.46 -12.28)" fill="#fff"/><path d="M133.89,18.07a.81.81,0,0,1-1,.45.77.77,0,0,1,.56-1.43A.73.73,0,0,1,133.89,18.07Z" transform="translate(-12.46 -12.28)" fill="#fff"/><path d="M135.87,19.05a.77.77,0,0,1-1.38-.68.77.77,0,0,1,1.38.68Z" transform="translate(-12.46 -12.28)" fill="#fff"/><path d="M110.94,20.65a.78.78,0,0,1-1.45.56.78.78,0,1,1,1.45-.56Z" transform="translate(-12.46 -12.28)" fill="#fff"/><path d="M113.09,20a.78.78,0,0,1-1.5.44.76.76,0,0,1,.53-1A.77.77,0,0,1,113.09,20Z" transform="translate(-12.46 -12.28)" fill="#fff"/><path d="M115.28,19.54a.78.78,0,0,1-1.53.31.78.78,0,1,1,1.53-.31Z" transform="translate(-12.46 -12.28)" fill="#fff"/><path d="M117.49,19.23a.77.77,0,0,1-.67.85.8.8,0,0,1-.87-.66.74.74,0,0,1,.67-.86A.75.75,0,0,1,117.49,19.23Z" transform="translate(-12.46 -12.28)" fill="#fff"/><path d="M119.73,19.07a.79.79,0,0,1-.74.81.78.78,0,0,1-.81-.72.78.78,0,0,1,1.55-.09Z" transform="translate(-12.46 -12.28)" fill="#fff"/><path d="M122,19.09a.8.8,0,0,1-.79.75.78.78,0,0,1-.77-.77.77.77,0,0,1,.79-.76A.74.74,0,0,1,122,19.09Z" transform="translate(-12.46 -12.28)" fill="#fff"/><path d="M124.2,19.28a.79.79,0,0,1-.84.68.77.77,0,0,1-.71-.82.79.79,0,0,1,.85-.71A.76.76,0,0,1,124.2,19.28Z" transform="translate(-12.46 -12.28)" fill="#fff"/><path d="M126.41,19.62a.81.81,0,0,1-.89.63.77.77,0,1,1,.25-1.52A.75.75,0,0,1,126.41,19.62Z" transform="translate(-12.46 -12.28)" fill="#fff"/><path d="M128.6,20.12a.81.81,0,0,1-.94.57A.77.77,0,1,1,128,19.2.75.75,0,0,1,128.6,20.12Z" transform="translate(-12.46 -12.28)" fill="#fff"/><path d="M130.73,20.79a.79.79,0,0,1-1,.5.78.78,0,0,1-.51-1,.76.76,0,0,1,1-.5A.74.74,0,0,1,130.73,20.79Z" transform="translate(-12.46 -12.28)" fill="#fff"/><path d="M132.82,21.61a.78.78,0,0,1-1.45-.58.78.78,0,0,1,1.45.58Z" transform="translate(-12.46 -12.28)" fill="#fff"/><path d="M115.08,23.12a.8.8,0,0,1-.47,1,.81.81,0,0,1-1-.39.76.76,0,0,1,.45-1A.77.77,0,0,1,115.08,23.12Z" transform="translate(-12.46 -12.28)" fill="#fff"/><path d="M117.3,22.52a.8.8,0,0,1-1.55.39.8.8,0,0,1,1.55-.39Z" transform="translate(-12.46 -12.28)" fill="#fff"/><path d="M119.59,22.21a.8.8,0,0,1-1.59.2.8.8,0,0,1,1.59-.2Z" transform="translate(-12.46 -12.28)" fill="#fff"/><path d="M121.89,22.17a.8.8,0,0,1-1.6,0,.79.79,0,0,1,.79-.8A.8.8,0,0,1,121.89,22.17Z" transform="translate(-12.46 -12.28)" fill="#fff"/><path d="M124.19,22.35a.81.81,0,0,1-1.6-.16.78.78,0,0,1,.88-.69A.77.77,0,0,1,124.19,22.35Z" transform="translate(-12.46 -12.28)" fill="#fff"/><path d="M126.45,22.77a.8.8,0,1,1-.63-.93A.79.79,0,0,1,126.45,22.77Z" transform="translate(-12.46 -12.28)" fill="#fff"/><path d="M128.67,23.38a.77.77,0,0,1-1,.5.79.79,0,0,1-.56-.95.75.75,0,0,1,1-.52A.78.78,0,0,1,128.67,23.38Z" transform="translate(-12.46 -12.28)" fill="#fff"/></svg>