<svg id="Layer_1" data-name="Layer 1" xmlns="http://www.w3.org/2000/svg" viewBox="0 0 218.45 85.53"><title>rate_2</title><path d="M27.1,127c.93-3.71,5.56-8.17,15.58-8.07,10-.1,14.66,4.36,15.59,8.07.69,2.76.61,4.7.1,6A88.54,88.54,0,0,1,71,136.58c.08-.38.15-.76.24-1.15,0,0,4.47-17.26-13.21-25.61a32.48,32.48,0,0,0-15.37-2.93,32.46,32.46,0,0,0-15.36,2.93c-17.68,8.35-13.21,25.61-13.21,25.61.12.52.22,1,.32,1.52A70.11,70.11,0,0,1,27,133.06C26.49,131.71,26.41,129.76,27.1,127Z" transform="translate(-11.46 -106.36)" fill="#ff5722" stroke="#000" stroke-miterlimit="10"/><path d="M71,136.58A88.54,88.54,0,0,0,58.37,133c-1.28,3.34-5.24,3.1-7.15,2.57a67.39,67.39,0,0,0-8.54-1.39,67.34,67.34,0,0,0-8.53,1.39c-1.91.53-5.86.77-7.14-2.55A70.11,70.11,0,0,0,14.43,137c1.39,7.55-.32,12.15-.32,12.15-4,9.31-1.24,21.12-1.24,21.12,6.71,22.27,22,21.16,29.81,21.15,9.14,0,22.92,0,29.82-21.15,0,0,2.72-11.81-1.24-21.12C71.26,149.1,69.5,144.34,71,136.58Z" transform="translate(-11.46 -106.36)" fill="#ff5722" stroke="#000" stroke-miterlimit="10"/><path d="M36.66,165.53a3.34,3.34,0,0,1,.24-4.14l2.52-2.68c1-1.09,1.06-2,.09-2A5.74,5.74,0,0,0,36,158.8l-3,3.5-.75.91c-.41.51-.75-.29-.75-1.79v-9.5c0-1.5-.64-2.71-1.44-2.71s-1.45,1.21-1.45,2.71v18.23c0,1.49.65,2.7,1.45,2.7s1.44-1.21,1.44-2.7v-.65a7,7,0,0,1,.75-3.54c.42-.46,1.46.15,2.33,1.37l2.4,3.33a5.16,5.16,0,0,0,3.37,2.19c1,0,1-1,.16-2.16Z" transform="translate(-11.46 -106.36)" fill="#fff"/><path d="M56.85,156.74A1.35,1.35,0,0,0,55.49,158c-.05.67-.68,0-2-.75a6,6,0,0,0-3.2-.84c-3.7,0-7.26,3.1-7.26,8.56,0,4.46,2.86,7.86,6.86,7.86A6.33,6.33,0,0,0,53.2,172c1.29-.76,1.93-1.46,1.93-1v.9c0,4.06-2.2,5.63-5.19,5.63a9.91,9.91,0,0,1-2.46-.31c-1.32-.35-2.43-.46-2.64.15s.68,1.78,2.13,2.13a13.16,13.16,0,0,0,2.87.33,8.54,8.54,0,0,0,5.86-1.94c1.56-1.4,2.3-3.66,2.3-7.35v-9.36c0-.85,0-1.58,0-2.22C58.07,157.73,57.55,156.74,56.85,156.74ZM55.1,166a5,5,0,0,1-.24,1.56,4.29,4.29,0,0,1-4.06,3c-3.16,0-4.76-2.63-4.76-5.8,0-3.73,2-6.09,4.79-6.09a4.22,4.22,0,0,1,4.1,3.1,3.94,3.94,0,0,1,.17,1.33Z" transform="translate(-11.46 -106.36)" fill="#fff"/><path d="M29.46,111.88a.77.77,0,0,1-1.46.49.77.77,0,1,1,1.46-.49Z" transform="translate(-11.46 -106.36)" fill="#fff"/><path d="M31.58,111.27a.77.77,0,1,1-1.48.41.77.77,0,0,1,1.48-.41Z" transform="translate(-11.46 -106.36)" fill="#fff"/><path d="M33.73,110.76a.8.8,0,0,1-.58.92.77.77,0,0,1-.35-1.5A.77.77,0,0,1,33.73,110.76Z" transform="translate(-11.46 -106.36)" fill="#fff"/><path d="M35.89,110.35a.78.78,0,0,1-.61.89.77.77,0,1,1,.61-.89Z" transform="translate(-11.46 -106.36)" fill="#fff"/><path d="M38.08,110a.78.78,0,0,1-.66.85.76.76,0,0,1-.86-.64.77.77,0,0,1,.65-.88A.76.76,0,0,1,38.08,110Z" transform="translate(-11.46 -106.36)" fill="#fff"/><path d="M40.27,109.83a.77.77,0,0,1-.69.82.75.75,0,0,1-.83-.69.76.76,0,0,1,.69-.84A.75.75,0,0,1,40.27,109.83Z" transform="translate(-11.46 -106.36)" fill="#fff"/><path d="M42.48,109.73a.8.8,0,0,1-.74.79.77.77,0,1,1-.05-1.53A.74.74,0,0,1,42.48,109.73Z" transform="translate(-11.46 -106.36)" fill="#fff"/><path d="M44.68,109.76a.78.78,0,0,1-.78.75.77.77,0,1,1,0-1.53A.74.74,0,0,1,44.68,109.76Z" transform="translate(-11.46 -106.36)" fill="#fff"/><path d="M46.88,109.93a.77.77,0,0,1-.82.7.78.78,0,0,1-.7-.83.76.76,0,1,1,1.52.13Z" transform="translate(-11.46 -106.36)" fill="#fff"/><path d="M49.07,110.24a.77.77,0,0,1-.87.63.78.78,0,0,1-.64-.88.73.73,0,0,1,.86-.63A.76.76,0,0,1,49.07,110.24Z" transform="translate(-11.46 -106.36)" fill="#fff"/><path d="M51.22,110.7a.75.75,0,0,1-.9.56.8.8,0,0,1-.59-.91.74.74,0,0,1,.92-.59A.78.78,0,0,1,51.22,110.7Z" transform="translate(-11.46 -106.36)" fill="#fff"/><path d="M53.34,111.31a.75.75,0,0,1-.94.48.74.74,0,0,1-.52-.92.79.79,0,0,1,1-.55A.77.77,0,0,1,53.34,111.31Z" transform="translate(-11.46 -106.36)" fill="#fff"/><path d="M55.41,112.07a.8.8,0,0,1-1,.45.76.76,0,0,1-.43-1,.77.77,0,0,1,1-.45A.73.73,0,0,1,55.41,112.07Z" transform="translate(-11.46 -106.36)" fill="#fff"/><path d="M57.39,113.05a.76.76,0,1,1-1.37-.68.76.76,0,1,1,1.37.68Z" transform="translate(-11.46 -106.36)" fill="#fff"/><path d="M32.47,114.65a.78.78,0,0,1-1.46.56.78.78,0,0,1,1.46-.56Z" transform="translate(-11.46 -106.36)" fill="#fff"/><path d="M34.61,114a.77.77,0,0,1-.54,1,.78.78,0,0,1-1-.51.78.78,0,0,1,1.49-.44Z" transform="translate(-11.46 -106.36)" fill="#fff"/><path d="M36.8,113.54a.76.76,0,0,1-.61.89.77.77,0,1,1,.61-.89Z" transform="translate(-11.46 -106.36)" fill="#fff"/><path d="M39,113.23a.78.78,0,0,1-.67.85.79.79,0,0,1-.87-.66.74.74,0,0,1,.67-.86A.75.75,0,0,1,39,113.23Z" transform="translate(-11.46 -106.36)" fill="#fff"/><path d="M41.25,113.07a.78.78,0,0,1-1.55.09.76.76,0,0,1,.74-.81A.75.75,0,0,1,41.25,113.07Z" transform="translate(-11.46 -106.36)" fill="#fff"/><path d="M43.49,113.09a.79.79,0,0,1-.79.75.77.77,0,0,1-.76-.77.76.76,0,0,1,.79-.76A.73.73,0,0,1,43.49,113.09Z" transform="translate(-11.46 -106.36)" fill="#fff"/><path d="M45.73,113.28a.79.79,0,0,1-.85.68.77.77,0,1,1,.14-1.53A.76.76,0,0,1,45.73,113.28Z" transform="translate(-11.46 -106.36)" fill="#fff"/><path d="M47.94,113.62a.81.81,0,0,1-.9.63.77.77,0,1,1,.26-1.52A.75.75,0,0,1,47.94,113.62Z" transform="translate(-11.46 -106.36)" fill="#fff"/><path d="M50.12,114.12a.8.8,0,0,1-.94.57.77.77,0,1,1,.37-1.49A.73.73,0,0,1,50.12,114.12Z" transform="translate(-11.46 -106.36)" fill="#fff"/><path d="M52.26,114.79a.79.79,0,0,1-1,.5.77.77,0,0,1-.5-1,.77.77,0,0,1,1.48.46Z" transform="translate(-11.46 -106.36)" fill="#fff"/><path d="M54.34,115.61A.78.78,0,0,1,52.9,115a.78.78,0,0,1,1.44.58Z" transform="translate(-11.46 -106.36)" fill="#fff"/><path d="M36.6,117.12a.8.8,0,0,1-.46,1,.81.81,0,0,1-1-.39.8.8,0,0,1,1.48-.6Z" transform="translate(-11.46 -106.36)" fill="#fff"/><path d="M38.83,116.52a.81.81,0,0,1-1.56.39.8.8,0,0,1,1.56-.39Z" transform="translate(-11.46 -106.36)" fill="#fff"/><path d="M41.11,116.21a.8.8,0,0,1-.7.85.82.82,0,0,1-.89-.65.8.8,0,0,1,1.59-.2Z" transform="translate(-11.46 -106.36)" fill="#fff"/><path d="M43.42,116.17a.78.78,0,0,1-.8.74.77.77,0,0,1-.8-.73.78.78,0,0,1,.79-.8A.8.8,0,0,1,43.42,116.17Z" transform="translate(-11.46 -106.36)" fill="#fff"/><path d="M45.71,116.35a.8.8,0,0,1-1.59-.16.8.8,0,0,1,1.59.16Z" transform="translate(-11.46 -106.36)" fill="#fff"/><path d="M48,116.77a.8.8,0,1,1-.63-.93A.8.8,0,0,1,48,116.77Z" transform="translate(-11.46 -106.36)" fill="#fff"/><path d="M50.2,117.38a.78.78,0,0,1-1,.5.81.81,0,0,1-.56-.95.77.77,0,0,1,1-.52A.78.78,0,0,1,50.2,117.38Z" transform="translate(-11.46 -106.36)" fill="#fff"/><path d="M105.1,127c.93-3.71,5.56-8.17,15.58-8.07,10-.1,14.66,4.36,15.59,8.07.69,2.76.61,4.7.1,6A88.54,88.54,0,0,1,149,136.58c.08-.38.15-.76.24-1.15,0,0,4.47-17.26-13.21-25.61a32.48,32.48,0,0,0-15.37-2.93,32.46,32.46,0,0,0-15.36,2.93c-17.68,8.35-13.21,25.61-13.21,25.61.12.52.22,1,.32,1.52A70.11,70.11,0,0,1,105,133.06C104.49,131.71,104.41,129.76,105.1,127Z" transform="translate(-11.46 -106.36)" fill="#ff5722" stroke="#000" stroke-miterlimit="10"/><path d="M149,136.58A88.54,88.54,0,0,0,136.37,133c-1.28,3.34-5.24,3.1-7.15,2.57a67.39,67.39,0,0,0-8.54-1.39,67.34,67.34,0,0,0-8.53,1.39c-1.91.53-5.86.77-7.14-2.55A70.11,70.11,0,0,0,92.43,137c1.39,7.55-.32,12.15-.32,12.15-4,9.31-1.24,21.12-1.24,21.12,6.71,22.27,22,21.16,29.81,21.15,9.14,0,22.92,0,29.82-21.15,0,0,2.72-11.81-1.24-21.12C149.26,149.1,147.5,144.34,149,136.58Z" transform="translate(-11.46 -106.36)" fill="#ff5722" stroke="#000" stroke-miterlimit="10"/><path d="M114.66,165.53a3.34,3.34,0,0,1,.24-4.14l2.52-2.68c1-1.09,1.06-2,.09-2A5.74,5.74,0,0,0,114,158.8l-3,3.5-.75.91c-.41.51-.75-.29-.75-1.79v-9.5c0-1.5-.64-2.71-1.44-2.71s-1.45,1.21-1.45,2.71v18.23c0,1.49.65,2.7,1.45,2.7s1.44-1.21,1.44-2.7v-.65a7,7,0,0,1,.75-3.54c.42-.46,1.46.15,2.33,1.37l2.4,3.33a5.16,5.16,0,0,0,3.37,2.19c1,0,1-1,.16-2.16Z" transform="translate(-11.46 -106.36)" fill="#fff"/><path d="M134.85,156.74a1.35,1.35,0,0,0-1.36,1.22c-.05.67-.68,0-2-.75a6,6,0,0,0-3.2-.84c-3.7,0-7.26,3.1-7.26,8.56,0,4.46,2.86,7.86,6.86,7.86a6.33,6.33,0,0,0,3.26-.84c1.29-.76,1.93-1.46,1.93-1v.9c0,4.06-2.2,5.63-5.19,5.63a9.91,9.91,0,0,1-2.46-.31c-1.32-.35-2.43-.46-2.64.15s.68,1.78,2.13,2.13a13.16,13.16,0,0,0,2.87.33,8.54,8.54,0,0,0,5.86-1.94c1.56-1.4,2.3-3.66,2.3-7.35v-9.36c0-.85,0-1.58,0-2.22C136.07,157.73,135.55,156.74,134.85,156.74ZM133.1,166a5,5,0,0,1-.24,1.56,4.29,4.29,0,0,1-4.06,3c-3.16,0-4.76-2.63-4.76-5.8,0-3.73,2-6.09,4.79-6.09a4.22,4.22,0,0,1,4.1,3.1,3.94,3.94,0,0,1,.17,1.33Z" transform="translate(-11.46 -106.36)" fill="#fff"/><path d="M107.46,111.88a.77.77,0,0,1-1.46.49.77.77,0,1,1,1.46-.49Z" transform="translate(-11.46 -106.36)" fill="#fff"/><path d="M109.58,111.27a.77.77,0,1,1-1.48.41.77.77,0,0,1,1.48-.41Z" transform="translate(-11.46 -106.36)" fill="#fff"/><path d="M111.73,110.76a.8.8,0,0,1-.58.92.77.77,0,0,1-.35-1.5A.77.77,0,0,1,111.73,110.76Z" transform="translate(-11.46 -106.36)" fill="#fff"/><path d="M113.89,110.35a.78.78,0,0,1-.61.89.77.77,0,1,1,.61-.89Z" transform="translate(-11.46 -106.36)" fill="#fff"/><path d="M116.08,110a.78.78,0,0,1-.66.85.76.76,0,0,1-.86-.64.77.77,0,0,1,.65-.88A.76.76,0,0,1,116.08,110Z" transform="translate(-11.46 -106.36)" fill="#fff"/><path d="M118.27,109.83a.77.77,0,0,1-.69.82.75.75,0,0,1-.83-.69.76.76,0,0,1,.69-.84A.75.75,0,0,1,118.27,109.83Z" transform="translate(-11.46 -106.36)" fill="#fff"/><path d="M120.48,109.73a.8.8,0,0,1-.74.79.77.77,0,1,1,0-1.53A.74.74,0,0,1,120.48,109.73Z" transform="translate(-11.46 -106.36)" fill="#fff"/><path d="M122.68,109.76a.78.78,0,0,1-.78.75.77.77,0,1,1,0-1.53A.74.74,0,0,1,122.68,109.76Z" transform="translate(-11.46 -106.36)" fill="#fff"/><path d="M124.88,109.93a.77.77,0,0,1-.82.7.78.78,0,0,1-.7-.83.76.76,0,1,1,1.52.13Z" transform="translate(-11.46 -106.36)" fill="#fff"/><path d="M127.07,110.24a.77.77,0,0,1-.87.63.78.78,0,0,1-.64-.88.73.73,0,0,1,.86-.63A.76.76,0,0,1,127.07,110.24Z" transform="translate(-11.46 -106.36)" fill="#fff"/><path d="M129.22,110.7a.75.75,0,0,1-.9.56.8.8,0,0,1-.59-.91.74.74,0,0,1,.92-.59A.78.78,0,0,1,129.22,110.7Z" transform="translate(-11.46 -106.36)" fill="#fff"/><path d="M131.34,111.31a.75.75,0,0,1-.94.48.74.74,0,0,1-.52-.92.79.79,0,0,1,1-.55A.77.77,0,0,1,131.34,111.31Z" transform="translate(-11.46 -106.36)" fill="#fff"/><path d="M133.41,112.07a.8.8,0,0,1-1,.45.76.76,0,0,1-.43-1,.77.77,0,0,1,1-.45A.73.73,0,0,1,133.41,112.07Z" transform="translate(-11.46 -106.36)" fill="#fff"/><path d="M135.39,113.05a.76.76,0,1,1-1.37-.68.76.76,0,1,1,1.37.68Z" transform="translate(-11.46 -106.36)" fill="#fff"/><path d="M110.47,114.65a.78.78,0,0,1-1.46.56.78.78,0,1,1,1.46-.56Z" transform="translate(-11.46 -106.36)" fill="#fff"/><path d="M112.61,114a.77.77,0,0,1-.54,1,.78.78,0,0,1-.95-.51.78.78,0,0,1,1.49-.44Z" transform="translate(-11.46 -106.36)" fill="#fff"/><path d="M114.8,113.54a.76.76,0,0,1-.61.89.77.77,0,1,1,.61-.89Z" transform="translate(-11.46 -106.36)" fill="#fff"/><path d="M117,113.23a.78.78,0,0,1-.67.85.79.79,0,0,1-.87-.66.74.74,0,0,1,.67-.86A.75.75,0,0,1,117,113.23Z" transform="translate(-11.46 -106.36)" fill="#fff"/><path d="M119.25,113.07a.78.78,0,0,1-1.55.09.76.76,0,0,1,.74-.81A.75.75,0,0,1,119.25,113.07Z" transform="translate(-11.46 -106.36)" fill="#fff"/><path d="M121.49,113.09a.79.79,0,0,1-.79.75.77.77,0,0,1-.76-.77.76.76,0,0,1,.79-.76A.73.73,0,0,1,121.49,113.09Z" transform="translate(-11.46 -106.36)" fill="#fff"/><path d="M123.73,113.28a.79.79,0,0,1-.85.68.77.77,0,1,1,.14-1.53A.76.76,0,0,1,123.73,113.28Z" transform="translate(-11.46 -106.36)" fill="#fff"/><path d="M125.94,113.62a.81.81,0,0,1-.9.63.77.77,0,1,1,.26-1.52A.75.75,0,0,1,125.94,113.62Z" transform="translate(-11.46 -106.36)" fill="#fff"/><path d="M128.12,114.12a.8.8,0,0,1-.94.57.77.77,0,1,1,.37-1.49A.73.73,0,0,1,128.12,114.12Z" transform="translate(-11.46 -106.36)" fill="#fff"/><path d="M130.26,114.79a.79.79,0,0,1-1,.5.77.77,0,0,1-.5-1,.77.77,0,0,1,1.48.46Z" transform="translate(-11.46 -106.36)" fill="#fff"/><path d="M132.34,115.61a.78.78,0,0,1-1.44-.58.78.78,0,0,1,1.44.58Z" transform="translate(-11.46 -106.36)" fill="#fff"/><path d="M114.6,117.12a.8.8,0,0,1-.46,1,.81.81,0,0,1-1-.39.8.8,0,0,1,1.48-.6Z" transform="translate(-11.46 -106.36)" fill="#fff"/><path d="M116.83,116.52a.81.81,0,0,1-1.56.39.8.8,0,0,1,1.56-.39Z" transform="translate(-11.46 -106.36)" fill="#fff"/><path d="M119.11,116.21a.8.8,0,0,1-.7.85.82.82,0,0,1-.89-.65.8.8,0,0,1,1.59-.2Z" transform="translate(-11.46 -106.36)" fill="#fff"/><path d="M121.42,116.17a.78.78,0,0,1-.8.74.77.77,0,0,1-.8-.73.78.78,0,0,1,.79-.8A.8.8,0,0,1,121.42,116.17Z" transform="translate(-11.46 -106.36)" fill="#fff"/><path d="M123.71,116.35a.8.8,0,0,1-1.59-.16.8.8,0,0,1,1.59.16Z" transform="translate(-11.46 -106.36)" fill="#fff"/><path d="M126,116.77a.8.8,0,1,1-.63-.93A.8.8,0,0,1,126,116.77Z" transform="translate(-11.46 -106.36)" fill="#fff"/><path d="M128.2,117.38a.78.78,0,0,1-1,.5.81.81,0,0,1-.56-.95.77.77,0,0,1,1-.52A.78.78,0,0,1,128.2,117.38Z" transform="translate(-11.46 -106.36)" fill="#fff"/><path d="M183.1,127c.93-3.71,5.56-8.17,15.58-8.07,10-.1,14.66,4.36,15.59,8.07.69,2.76.61,4.7.1,6A88.54,88.54,0,0,1,227,136.58c.08-.38.15-.76.24-1.15,0,0,4.47-17.26-13.21-25.61a32.48,32.48,0,0,0-15.37-2.93,32.46,32.46,0,0,0-15.36,2.93c-17.68,8.35-13.21,25.61-13.21,25.61.12.52.22,1,.32,1.52A70.11,70.11,0,0,1,183,133.06C182.49,131.71,182.41,129.76,183.1,127Z" transform="translate(-11.46 -106.36)" fill="gray" stroke="#000" stroke-miterlimit="10" opacity="0.8"/><path d="M227,136.58A88.54,88.54,0,0,0,214.37,133c-1.28,3.34-5.24,3.1-7.15,2.57a67.39,67.39,0,0,0-8.54-1.39,67.34,67.34,0,0,0-8.53,1.39c-1.91.53-5.86.77-7.14-2.55A70.11,70.11,0,0,0,170.43,137c1.39,7.55-.32,12.15-.32,12.15-4,9.31-1.24,21.12-1.24,21.12,6.71,22.27,22,21.16,29.81,21.15,9.14,0,22.92,0,29.82-21.15,0,0,2.72-11.81-1.24-21.12C227.26,149.1,225.5,144.34,227,136.58Z" transform="translate(-11.46 -106.36)" fill="gray" stroke="#000" stroke-miterlimit="10" opacity="0.8"/><path d="M185.46,111.88a.77.77,0,0,1-1.46.49.77.77,0,1,1,1.46-.49Z" transform="translate(-11.46 -106.36)" fill="#fff"/><path d="M187.58,111.27a.77.77,0,1,1-1.48.41.77.77,0,0,1,1.48-.41Z" transform="translate(-11.46 -106.36)" fill="#fff"/><path d="M189.73,110.76a.8.8,0,0,1-.58.92.77.77,0,0,1-.35-1.5A.77.77,0,0,1,189.73,110.76Z" transform="translate(-11.46 -106.36)" fill="#fff"/><path d="M191.89,110.35a.78.78,0,0,1-.61.89.77.77,0,1,1,.61-.89Z" transform="translate(-11.46 -106.36)" fill="#fff"/><path d="M194.08,110a.78.78,0,0,1-.66.85.76.76,0,0,1-.86-.64.77.77,0,0,1,.65-.88A.76.76,0,0,1,194.08,110Z" transform="translate(-11.46 -106.36)" fill="#fff"/><path d="M196.27,109.83a.77.77,0,0,1-.69.82.75.75,0,0,1-.83-.69.76.76,0,0,1,.69-.84A.75.75,0,0,1,196.27,109.83Z" transform="translate(-11.46 -106.36)" fill="#fff"/><path d="M198.48,109.73a.8.8,0,0,1-.74.79.77.77,0,1,1-.05-1.53A.74.74,0,0,1,198.48,109.73Z" transform="translate(-11.46 -106.36)" fill="#fff"/><path d="M200.68,109.76a.78.78,0,0,1-.78.75.77.77,0,1,1,0-1.53A.74.74,0,0,1,200.68,109.76Z" transform="translate(-11.46 -106.36)" fill="#fff"/><path d="M202.88,109.93a.77.77,0,0,1-.82.7.78.78,0,0,1-.7-.83.76.76,0,1,1,1.52.13Z" transform="translate(-11.46 -106.36)" fill="#fff"/><path d="M205.07,110.24a.77.77,0,0,1-.87.63.78.78,0,0,1-.64-.88.73.73,0,0,1,.86-.63A.76.76,0,0,1,205.07,110.24Z" transform="translate(-11.46 -106.36)" fill="#fff"/><path d="M207.22,110.7a.75.75,0,0,1-.9.56.8.8,0,0,1-.59-.91.74.74,0,0,1,.92-.59A.78.78,0,0,1,207.22,110.7Z" transform="translate(-11.46 -106.36)" fill="#fff"/><path d="M209.34,111.31a.75.75,0,0,1-.94.48.74.74,0,0,1-.52-.92.79.79,0,0,1,1-.55A.77.77,0,0,1,209.34,111.31Z" transform="translate(-11.46 -106.36)" fill="#fff"/><path d="M211.41,112.07a.8.8,0,0,1-1,.45.76.76,0,0,1-.43-1,.77.77,0,0,1,1-.45A.73.73,0,0,1,211.41,112.07Z" transform="translate(-11.46 -106.36)" fill="#fff"/><path d="M213.39,113.05a.76.76,0,1,1-1.37-.68.76.76,0,1,1,1.37.68Z" transform="translate(-11.46 -106.36)" fill="#fff"/><path d="M188.47,114.65a.78.78,0,0,1-1.46.56.78.78,0,1,1,1.46-.56Z" transform="translate(-11.46 -106.36)" fill="#fff"/><path d="M190.61,114a.77.77,0,0,1-.54,1,.78.78,0,0,1-.95-.51.78.78,0,0,1,1.49-.44Z" transform="translate(-11.46 -106.36)" fill="#fff"/><path d="M192.8,113.54a.76.76,0,0,1-.61.89.77.77,0,1,1,.61-.89Z" transform="translate(-11.46 -106.36)" fill="#fff"/><path d="M195,113.23a.78.78,0,0,1-.67.85.79.79,0,0,1-.87-.66.74.74,0,0,1,.67-.86A.75.75,0,0,1,195,113.23Z" transform="translate(-11.46 -106.36)" fill="#fff"/><path d="M197.25,113.07a.78.78,0,0,1-1.55.09.76.76,0,0,1,.74-.81A.75.75,0,0,1,197.25,113.07Z" transform="translate(-11.46 -106.36)" fill="#fff"/><path d="M199.49,113.09a.79.79,0,0,1-.79.75.77.77,0,0,1-.76-.77.76.76,0,0,1,.79-.76A.73.73,0,0,1,199.49,113.09Z" transform="translate(-11.46 -106.36)" fill="#fff"/><path d="M201.73,113.28a.79.79,0,0,1-.85.68.77.77,0,1,1,.14-1.53A.76.76,0,0,1,201.73,113.28Z" transform="translate(-11.46 -106.36)" fill="#fff"/><path d="M203.94,113.62a.81.81,0,0,1-.9.63.77.77,0,1,1,.26-1.52A.75.75,0,0,1,203.94,113.62Z" transform="translate(-11.46 -106.36)" fill="#fff"/><path d="M206.12,114.12a.8.8,0,0,1-.94.57.77.77,0,1,1,.37-1.49A.73.73,0,0,1,206.12,114.12Z" transform="translate(-11.46 -106.36)" fill="#fff"/><path d="M208.26,114.79a.79.79,0,0,1-1,.5.77.77,0,0,1-.5-1,.77.77,0,0,1,1.48.46Z" transform="translate(-11.46 -106.36)" fill="#fff"/><path d="M210.34,115.61a.78.78,0,0,1-1.44-.58.78.78,0,0,1,1.44.58Z" transform="translate(-11.46 -106.36)" fill="#fff"/><path d="M192.6,117.12a.8.8,0,0,1-.46,1,.81.81,0,0,1-1-.39.8.8,0,0,1,1.48-.6Z" transform="translate(-11.46 -106.36)" fill="#fff"/><path d="M194.83,116.52a.81.81,0,0,1-1.56.39.8.8,0,0,1,1.56-.39Z" transform="translate(-11.46 -106.36)" fill="#fff"/><path d="M197.11,116.21a.8.8,0,0,1-.7.85.82.82,0,0,1-.89-.65.8.8,0,0,1,1.59-.2Z" transform="translate(-11.46 -106.36)" fill="#fff"/><path d="M199.42,116.17a.78.78,0,0,1-.8.74.77.77,0,0,1-.8-.73.78.78,0,0,1,.79-.8A.8.8,0,0,1,199.42,116.17Z" transform="translate(-11.46 -106.36)" fill="#fff"/><path d="M201.71,116.35a.8.8,0,0,1-1.59-.16.8.8,0,0,1,1.59.16Z" transform="translate(-11.46 -106.36)" fill="#fff"/><path d="M204,116.77a.8.8,0,1,1-.63-.93A.8.8,0,0,1,204,116.77Z" transform="translate(-11.46 -106.36)" fill="#fff"/><path d="M206.2,117.38a.78.78,0,0,1-1,.5.81.81,0,0,1-.56-.95.77.77,0,0,1,1-.52A.78.78,0,0,1,206.2,117.38Z" transform="translate(-11.46 -106.36)" fill="#fff"/></svg>